<svg preserveAspectRatio="xMidYMid meet" viewBox="0 0 664 198.305" fill="none" xmlns="http://www.w3.org/2000/svg">
<g id="LOGO">
<rect id="Rectangle 27" width="198.304" height="198.305" rx="39.6609" fill="var(--fill-0, #7300FF)"/>
<path id="Vector 29" d="M59.4923 59.4915C59.4923 44.8887 71.3302 33.0508 85.933 33.0508H138.814C146.115 33.0508 152.034 38.9698 152.034 46.2712C152.034 53.5725 146.115 59.4915 138.814 59.4915H59.4924C44.8896 59.4915 33.0517 71.3294 33.0517 85.9322C33.0517 100.535 44.8896 112.373 59.4924 112.373H112.421C126.997 112.373 138.814 124.19 138.814 138.766C138.814 153.38 126.94 165.212 112.326 165.159L59.6341 164.97C52.4294 164.945 46.6025 159.097 46.6025 151.892C46.6025 144.669 52.458 138.814 59.681 138.814H138.814C153.417 138.814 165.255 126.976 165.255 112.373C165.255 97.7701 153.417 85.9322 138.814 85.9322H85.933C71.3302 85.9322 59.4923 74.0943 59.4923 59.4915Z" stroke="var(--stroke-0, white)" stroke-width="11.2373"/>
<g id="Vector">
<mask id="path-3-outside-1_0_4" maskUnits="userSpaceOnUse" x="247.883" y="30.3262" width="417" height="131" fill="black">
<rect fill="white" x="247.883" y="30.3262" width="417" height="131"/>
<path d="M311.696 80.2675C313.419 83.461 311.404 87.2003 307.923 88.2262C304.65 89.1912 301.231 87.3821 299.284 84.5795C299.098 84.3129 298.907 84.0473 298.709 83.7828C297.254 81.7492 295.263 80.0744 292.736 78.7585C290.209 77.4425 286.974 76.7846 283.03 76.7846C277.632 76.7846 273.133 78.0805 269.534 80.6725C265.973 83.2245 264.193 86.4744 264.193 90.4221C264.193 93.9312 265.418 96.7026 267.869 98.7362C270.319 100.77 274.148 102.464 279.355 103.821L292.449 107.17C300.336 109.164 306.213 112.214 310.08 116.322C313.946 120.389 315.88 125.633 315.88 132.053C315.88 137.316 314.425 142.022 311.515 146.168C308.644 150.315 304.624 153.586 299.455 155.978C294.286 158.37 288.275 159.567 281.422 159.567C272.425 159.567 264.978 157.533 259.082 153.466C254.842 150.541 251.72 146.647 249.717 141.783C248.346 138.452 250.609 134.932 254.095 134.024C257.756 133.071 261.341 135.413 263.316 138.639C264.489 140.557 265.949 142.149 267.696 143.417C271.142 145.889 275.641 147.126 281.192 147.126C287.51 147.126 292.525 145.73 296.239 142.939C299.991 140.107 301.867 136.718 301.867 132.77C301.867 129.58 300.795 126.908 298.651 124.755C296.507 122.562 293.214 120.927 288.773 119.85L274.071 116.261C265.993 114.268 260.058 111.177 256.268 106.99C252.516 102.764 250.64 97.4802 250.64 91.1399C250.64 85.956 252.037 81.3703 254.832 77.3828C257.665 73.3952 261.513 70.2649 266.375 67.992C271.276 65.7191 276.828 64.5826 283.03 64.5826C291.76 64.5826 298.613 66.5764 303.59 70.564C306.942 73.2287 309.644 76.4632 311.696 80.2675ZM348.917 124.157L348.687 106.692H351.443L388.238 67.6856C389.386 66.4687 390.985 65.7789 392.658 65.7789C397.996 65.7789 400.74 72.168 397.064 76.0387L365.687 109.084H364.538L348.917 124.157ZM343.059 157.653C339.316 157.653 336.282 154.619 336.282 150.876V41.9312C336.282 38.1884 339.316 35.1543 343.059 35.1543C346.802 35.1543 349.836 38.1884 349.836 41.9312V150.876C349.836 154.619 346.802 157.653 343.059 157.653ZM395.739 157.653C393.594 157.653 391.573 156.649 390.277 154.939L357.876 112.194L367.524 102.385L401.194 146.65C404.626 151.162 401.408 157.653 395.739 157.653ZM447.565 159.806C441.975 159.806 436.902 158.709 432.346 156.516C427.79 154.283 424.172 151.073 421.492 146.886C418.812 142.659 417.472 137.555 417.472 131.574C417.472 126.311 418.467 122.044 420.458 118.774C422.449 115.464 425.11 112.872 428.441 110.998C431.772 109.124 435.447 107.728 439.467 106.811C443.526 105.854 447.603 105.097 451.7 104.538C457.06 103.821 461.406 103.282 464.736 102.923C468.106 102.525 470.556 101.867 472.087 100.95C473.657 100.032 474.442 98.4371 474.442 96.1642V95.6858C474.442 89.7841 472.892 85.1984 469.791 81.9286C466.727 78.6588 462.076 77.0238 455.835 77.0238C449.364 77.0238 444.292 78.4993 440.616 81.4501C439.004 82.7444 437.602 84.077 436.409 85.4481C434.001 88.2176 430.184 89.9042 426.744 88.6246C423.057 87.253 421.163 83.0344 423.301 79.7316C425.006 77.0977 426.968 74.8792 429.188 73.0761C433.055 69.926 437.266 67.7328 441.822 66.4966C446.417 65.2206 450.934 64.5826 455.375 64.5826C458.209 64.5826 461.463 64.9415 465.139 65.6593C468.852 66.3371 472.432 67.7527 475.878 69.906C479.362 72.0593 482.253 75.3092 484.55 79.6557C486.847 84.0021 487.996 89.824 487.996 97.1213V150.876C487.996 154.619 484.962 157.653 481.219 157.653C477.476 157.653 474.442 154.619 474.442 150.876V145.211H473.753C472.834 147.205 471.303 149.339 469.159 151.611C467.015 153.885 464.162 155.819 460.601 157.413C457.041 159.008 452.695 159.806 447.565 159.806ZM449.632 147.126C454.992 147.126 459.511 146.029 463.186 143.836C466.9 141.643 469.695 138.811 471.571 135.342C473.485 131.873 474.442 128.224 474.442 124.396V111.477C473.868 112.194 472.604 112.852 470.652 113.451C468.738 114.009 466.517 114.507 463.99 114.946C461.502 115.344 459.07 115.703 456.696 116.023C454.361 116.302 452.466 116.541 451.011 116.74C447.488 117.219 444.196 117.996 441.133 119.073C438.108 120.11 435.658 121.685 433.782 123.798C431.944 125.871 431.025 128.703 431.025 132.292C431.025 137.196 432.767 140.905 436.251 143.417C439.773 145.889 444.234 147.126 449.632 147.126ZM519.511 157.653C515.768 157.653 512.734 154.619 512.734 150.876V72.5558C512.734 68.813 515.768 65.7789 519.511 65.7789C523.253 65.7789 526.287 68.813 526.287 72.5558V150.876C526.287 154.619 523.253 157.653 519.511 157.653ZM519.625 50.4666C516.983 50.4666 514.706 49.5295 512.791 47.6553C510.915 45.7812 509.977 43.5282 509.977 40.8964C509.977 38.2646 510.915 36.0116 512.791 34.1374C514.706 32.2633 516.983 31.3262 519.625 31.3262C522.267 31.3262 524.526 32.2633 526.402 34.1374C528.316 36.0116 529.274 38.2646 529.274 40.8964C529.274 43.5282 528.316 45.7812 526.402 47.6553C524.526 49.5295 522.267 50.4666 519.625 50.4666ZM557.888 35.1543C561.631 35.1543 564.665 38.1884 564.665 41.9312V150.876C564.665 154.619 561.631 157.653 557.888 157.653C554.145 157.653 551.111 154.619 551.111 150.876V41.9312C551.111 38.1884 554.145 35.1543 557.888 35.1543ZM626.474 159.567C617.975 159.567 610.642 157.613 604.479 153.705C598.353 149.757 593.624 144.255 590.293 137.196C587.001 130.099 585.354 121.844 585.354 112.434C585.354 103.023 587.001 94.7287 590.293 87.5511C593.624 80.3336 598.257 74.711 604.191 70.6836C610.164 66.6163 617.132 64.5826 625.096 64.5826C629.69 64.5826 634.227 65.3801 638.707 66.9751C643.186 68.5702 647.264 71.1621 650.939 74.7509C654.615 78.2999 657.544 83.0052 659.726 88.867C661.909 94.7287 663 101.946 663 110.519C663 113.823 660.322 116.501 657.019 116.501H595.003V104.299H649.216C649.216 99.115 648.221 94.4895 646.23 90.4221C644.278 86.3548 641.482 83.1448 637.845 80.7921C634.246 78.4394 629.996 77.2631 625.096 77.2631C619.698 77.2631 615.026 78.6588 611.083 81.4501C607.177 84.2015 604.172 87.7903 602.066 92.2166C599.961 96.6427 598.908 101.388 598.908 106.452V114.587C598.908 121.525 600.056 127.407 602.354 132.232C604.689 137.017 607.924 140.666 612.059 143.177C616.194 145.65 620.999 146.886 626.474 146.886C630.034 146.886 633.251 146.368 636.122 145.331C639.032 144.255 641.54 142.659 643.646 140.546C644.308 139.868 644.924 139.14 645.491 138.359C647.671 135.363 651.3 133.342 654.856 134.381C658.587 135.472 660.793 139.454 658.876 142.834C657.712 144.885 656.311 146.794 654.672 148.561C651.418 152.031 647.398 154.741 642.612 156.695C637.826 158.61 632.447 159.567 626.474 159.567Z"/>
</mask>
<path d="M311.696 80.2675C313.419 83.461 311.404 87.2003 307.923 88.2262C304.65 89.1912 301.231 87.3821 299.284 84.5795C299.098 84.3129 298.907 84.0473 298.709 83.7828C297.254 81.7492 295.263 80.0744 292.736 78.7585C290.209 77.4425 286.974 76.7846 283.03 76.7846C277.632 76.7846 273.133 78.0805 269.534 80.6725C265.973 83.2245 264.193 86.4744 264.193 90.4221C264.193 93.9312 265.418 96.7026 267.869 98.7362C270.319 100.77 274.148 102.464 279.355 103.821L292.449 107.17C300.336 109.164 306.213 112.214 310.08 116.322C313.946 120.389 315.88 125.633 315.88 132.053C315.88 137.316 314.425 142.022 311.515 146.168C308.644 150.315 304.624 153.586 299.455 155.978C294.286 158.37 288.275 159.567 281.422 159.567C272.425 159.567 264.978 157.533 259.082 153.466C254.842 150.541 251.72 146.647 249.717 141.783C248.346 138.452 250.609 134.932 254.095 134.024C257.756 133.071 261.341 135.413 263.316 138.639C264.489 140.557 265.949 142.149 267.696 143.417C271.142 145.889 275.641 147.126 281.192 147.126C287.51 147.126 292.525 145.73 296.239 142.939C299.991 140.107 301.867 136.718 301.867 132.77C301.867 129.58 300.795 126.908 298.651 124.755C296.507 122.562 293.214 120.927 288.773 119.85L274.071 116.261C265.993 114.268 260.058 111.177 256.268 106.99C252.516 102.764 250.64 97.4802 250.64 91.1399C250.64 85.956 252.037 81.3703 254.832 77.3828C257.665 73.3952 261.513 70.2649 266.375 67.992C271.276 65.7191 276.828 64.5826 283.03 64.5826C291.76 64.5826 298.613 66.5764 303.59 70.564C306.942 73.2287 309.644 76.4632 311.696 80.2675ZM348.917 124.157L348.687 106.692H351.443L388.238 67.6856C389.386 66.4687 390.985 65.7789 392.658 65.7789C397.996 65.7789 400.74 72.168 397.064 76.0387L365.687 109.084H364.538L348.917 124.157ZM343.059 157.653C339.316 157.653 336.282 154.619 336.282 150.876V41.9312C336.282 38.1884 339.316 35.1543 343.059 35.1543C346.802 35.1543 349.836 38.1884 349.836 41.9312V150.876C349.836 154.619 346.802 157.653 343.059 157.653ZM395.739 157.653C393.594 157.653 391.573 156.649 390.277 154.939L357.876 112.194L367.524 102.385L401.194 146.65C404.626 151.162 401.408 157.653 395.739 157.653ZM447.565 159.806C441.975 159.806 436.902 158.709 432.346 156.516C427.79 154.283 424.172 151.073 421.492 146.886C418.812 142.659 417.472 137.555 417.472 131.574C417.472 126.311 418.467 122.044 420.458 118.774C422.449 115.464 425.11 112.872 428.441 110.998C431.772 109.124 435.447 107.728 439.467 106.811C443.526 105.854 447.603 105.097 451.7 104.538C457.06 103.821 461.406 103.282 464.736 102.923C468.106 102.525 470.556 101.867 472.087 100.95C473.657 100.032 474.442 98.4371 474.442 96.1642V95.6858C474.442 89.7841 472.892 85.1984 469.791 81.9286C466.727 78.6588 462.076 77.0238 455.835 77.0238C449.364 77.0238 444.292 78.4993 440.616 81.4501C439.004 82.7444 437.602 84.077 436.409 85.4481C434.001 88.2176 430.184 89.9042 426.744 88.6246C423.057 87.253 421.163 83.0344 423.301 79.7316C425.006 77.0977 426.968 74.8792 429.188 73.0761C433.055 69.926 437.266 67.7328 441.822 66.4966C446.417 65.2206 450.934 64.5826 455.375 64.5826C458.209 64.5826 461.463 64.9415 465.139 65.6593C468.852 66.3371 472.432 67.7527 475.878 69.906C479.362 72.0593 482.253 75.3092 484.55 79.6557C486.847 84.0021 487.996 89.824 487.996 97.1213V150.876C487.996 154.619 484.962 157.653 481.219 157.653C477.476 157.653 474.442 154.619 474.442 150.876V145.211H473.753C472.834 147.205 471.303 149.339 469.159 151.611C467.015 153.885 464.162 155.819 460.601 157.413C457.041 159.008 452.695 159.806 447.565 159.806ZM449.632 147.126C454.992 147.126 459.511 146.029 463.186 143.836C466.9 141.643 469.695 138.811 471.571 135.342C473.485 131.873 474.442 128.224 474.442 124.396V111.477C473.868 112.194 472.604 112.852 470.652 113.451C468.738 114.009 466.517 114.507 463.99 114.946C461.502 115.344 459.07 115.703 456.696 116.023C454.361 116.302 452.466 116.541 451.011 116.74C447.488 117.219 444.196 117.996 441.133 119.073C438.108 120.11 435.658 121.685 433.782 123.798C431.944 125.871 431.025 128.703 431.025 132.292C431.025 137.196 432.767 140.905 436.251 143.417C439.773 145.889 444.234 147.126 449.632 147.126ZM519.511 157.653C515.768 157.653 512.734 154.619 512.734 150.876V72.5558C512.734 68.813 515.768 65.7789 519.511 65.7789C523.253 65.7789 526.287 68.813 526.287 72.5558V150.876C526.287 154.619 523.253 157.653 519.511 157.653ZM519.625 50.4666C516.983 50.4666 514.706 49.5295 512.791 47.6553C510.915 45.7812 509.977 43.5282 509.977 40.8964C509.977 38.2646 510.915 36.0116 512.791 34.1374C514.706 32.2633 516.983 31.3262 519.625 31.3262C522.267 31.3262 524.526 32.2633 526.402 34.1374C528.316 36.0116 529.274 38.2646 529.274 40.8964C529.274 43.5282 528.316 45.7812 526.402 47.6553C524.526 49.5295 522.267 50.4666 519.625 50.4666ZM557.888 35.1543C561.631 35.1543 564.665 38.1884 564.665 41.9312V150.876C564.665 154.619 561.631 157.653 557.888 157.653C554.145 157.653 551.111 154.619 551.111 150.876V41.9312C551.111 38.1884 554.145 35.1543 557.888 35.1543ZM626.474 159.567C617.975 159.567 610.642 157.613 604.479 153.705C598.353 149.757 593.624 144.255 590.293 137.196C587.001 130.099 585.354 121.844 585.354 112.434C585.354 103.023 587.001 94.7287 590.293 87.5511C593.624 80.3336 598.257 74.711 604.191 70.6836C610.164 66.6163 617.132 64.5826 625.096 64.5826C629.69 64.5826 634.227 65.3801 638.707 66.9751C643.186 68.5702 647.264 71.1621 650.939 74.7509C654.615 78.2999 657.544 83.0052 659.726 88.867C661.909 94.7287 663 101.946 663 110.519C663 113.823 660.322 116.501 657.019 116.501H595.003V104.299H649.216C649.216 99.115 648.221 94.4895 646.23 90.4221C644.278 86.3548 641.482 83.1448 637.845 80.7921C634.246 78.4394 629.996 77.2631 625.096 77.2631C619.698 77.2631 615.026 78.6588 611.083 81.4501C607.177 84.2015 604.172 87.7903 602.066 92.2166C599.961 96.6427 598.908 101.388 598.908 106.452V114.587C598.908 121.525 600.056 127.407 602.354 132.232C604.689 137.017 607.924 140.666 612.059 143.177C616.194 145.65 620.999 146.886 626.474 146.886C630.034 146.886 633.251 146.368 636.122 145.331C639.032 144.255 641.54 142.659 643.646 140.546C644.308 139.868 644.924 139.14 645.491 138.359C647.671 135.363 651.3 133.342 654.856 134.381C658.587 135.472 660.793 139.454 658.876 142.834C657.712 144.885 656.311 146.794 654.672 148.561C651.418 152.031 647.398 154.741 642.612 156.695C637.826 158.61 632.447 159.567 626.474 159.567Z" fill="var(--fill-0, #7300FF)"/>
<path d="M311.696 80.2675C313.419 83.461 311.404 87.2003 307.923 88.2262C304.65 89.1912 301.231 87.3821 299.284 84.5795C299.098 84.3129 298.907 84.0473 298.709 83.7828C297.254 81.7492 295.263 80.0744 292.736 78.7585C290.209 77.4425 286.974 76.7846 283.03 76.7846C277.632 76.7846 273.133 78.0805 269.534 80.6725C265.973 83.2245 264.193 86.4744 264.193 90.4221C264.193 93.9312 265.418 96.7026 267.869 98.7362C270.319 100.77 274.148 102.464 279.355 103.821L292.449 107.17C300.336 109.164 306.213 112.214 310.08 116.322C313.946 120.389 315.88 125.633 315.88 132.053C315.88 137.316 314.425 142.022 311.515 146.168C308.644 150.315 304.624 153.586 299.455 155.978C294.286 158.37 288.275 159.567 281.422 159.567C272.425 159.567 264.978 157.533 259.082 153.466C254.842 150.541 251.72 146.647 249.717 141.783C248.346 138.452 250.609 134.932 254.095 134.024C257.756 133.071 261.341 135.413 263.316 138.639C264.489 140.557 265.949 142.149 267.696 143.417C271.142 145.889 275.641 147.126 281.192 147.126C287.51 147.126 292.525 145.73 296.239 142.939C299.991 140.107 301.867 136.718 301.867 132.77C301.867 129.58 300.795 126.908 298.651 124.755C296.507 122.562 293.214 120.927 288.773 119.85L274.071 116.261C265.993 114.268 260.058 111.177 256.268 106.99C252.516 102.764 250.64 97.4802 250.64 91.1399C250.64 85.956 252.037 81.3703 254.832 77.3828C257.665 73.3952 261.513 70.2649 266.375 67.992C271.276 65.7191 276.828 64.5826 283.03 64.5826C291.76 64.5826 298.613 66.5764 303.59 70.564C306.942 73.2287 309.644 76.4632 311.696 80.2675ZM348.917 124.157L348.687 106.692H351.443L388.238 67.6856C389.386 66.4687 390.985 65.7789 392.658 65.7789C397.996 65.7789 400.74 72.168 397.064 76.0387L365.687 109.084H364.538L348.917 124.157ZM343.059 157.653C339.316 157.653 336.282 154.619 336.282 150.876V41.9312C336.282 38.1884 339.316 35.1543 343.059 35.1543C346.802 35.1543 349.836 38.1884 349.836 41.9312V150.876C349.836 154.619 346.802 157.653 343.059 157.653ZM395.739 157.653C393.594 157.653 391.573 156.649 390.277 154.939L357.876 112.194L367.524 102.385L401.194 146.65C404.626 151.162 401.408 157.653 395.739 157.653ZM447.565 159.806C441.975 159.806 436.902 158.709 432.346 156.516C427.79 154.283 424.172 151.073 421.492 146.886C418.812 142.659 417.472 137.555 417.472 131.574C417.472 126.311 418.467 122.044 420.458 118.774C422.449 115.464 425.11 112.872 428.441 110.998C431.772 109.124 435.447 107.728 439.467 106.811C443.526 105.854 447.603 105.097 451.7 104.538C457.06 103.821 461.406 103.282 464.736 102.923C468.106 102.525 470.556 101.867 472.087 100.95C473.657 100.032 474.442 98.4371 474.442 96.1642V95.6858C474.442 89.7841 472.892 85.1984 469.791 81.9286C466.727 78.6588 462.076 77.0238 455.835 77.0238C449.364 77.0238 444.292 78.4993 440.616 81.4501C439.004 82.7444 437.602 84.077 436.409 85.4481C434.001 88.2176 430.184 89.9042 426.744 88.6246C423.057 87.253 421.163 83.0344 423.301 79.7316C425.006 77.0977 426.968 74.8792 429.188 73.0761C433.055 69.926 437.266 67.7328 441.822 66.4966C446.417 65.2206 450.934 64.5826 455.375 64.5826C458.209 64.5826 461.463 64.9415 465.139 65.6593C468.852 66.3371 472.432 67.7527 475.878 69.906C479.362 72.0593 482.253 75.3092 484.55 79.6557C486.847 84.0021 487.996 89.824 487.996 97.1213V150.876C487.996 154.619 484.962 157.653 481.219 157.653C477.476 157.653 474.442 154.619 474.442 150.876V145.211H473.753C472.834 147.205 471.303 149.339 469.159 151.611C467.015 153.885 464.162 155.819 460.601 157.413C457.041 159.008 452.695 159.806 447.565 159.806ZM449.632 147.126C454.992 147.126 459.511 146.029 463.186 143.836C466.9 141.643 469.695 138.811 471.571 135.342C473.485 131.873 474.442 128.224 474.442 124.396V111.477C473.868 112.194 472.604 112.852 470.652 113.451C468.738 114.009 466.517 114.507 463.99 114.946C461.502 115.344 459.07 115.703 456.696 116.023C454.361 116.302 452.466 116.541 451.011 116.74C447.488 117.219 444.196 117.996 441.133 119.073C438.108 120.11 435.658 121.685 433.782 123.798C431.944 125.871 431.025 128.703 431.025 132.292C431.025 137.196 432.767 140.905 436.251 143.417C439.773 145.889 444.234 147.126 449.632 147.126ZM519.511 157.653C515.768 157.653 512.734 154.619 512.734 150.876V72.5558C512.734 68.813 515.768 65.7789 519.511 65.7789C523.253 65.7789 526.287 68.813 526.287 72.5558V150.876C526.287 154.619 523.253 157.653 519.511 157.653ZM519.625 50.4666C516.983 50.4666 514.706 49.5295 512.791 47.6553C510.915 45.7812 509.977 43.5282 509.977 40.8964C509.977 38.2646 510.915 36.0116 512.791 34.1374C514.706 32.2633 516.983 31.3262 519.625 31.3262C522.267 31.3262 524.526 32.2633 526.402 34.1374C528.316 36.0116 529.274 38.2646 529.274 40.8964C529.274 43.5282 528.316 45.7812 526.402 47.6553C524.526 49.5295 522.267 50.4666 519.625 50.4666ZM557.888 35.1543C561.631 35.1543 564.665 38.1884 564.665 41.9312V150.876C564.665 154.619 561.631 157.653 557.888 157.653C554.145 157.653 551.111 154.619 551.111 150.876V41.9312C551.111 38.1884 554.145 35.1543 557.888 35.1543ZM626.474 159.567C617.975 159.567 610.642 157.613 604.479 153.705C598.353 149.757 593.624 144.255 590.293 137.196C587.001 130.099 585.354 121.844 585.354 112.434C585.354 103.023 587.001 94.7287 590.293 87.5511C593.624 80.3336 598.257 74.711 604.191 70.6836C610.164 66.6163 617.132 64.5826 625.096 64.5826C629.69 64.5826 634.227 65.3801 638.707 66.9751C643.186 68.5702 647.264 71.1621 650.939 74.7509C654.615 78.2999 657.544 83.0052 659.726 88.867C661.909 94.7287 663 101.946 663 110.519C663 113.823 660.322 116.501 657.019 116.501H595.003V104.299H649.216C649.216 99.115 648.221 94.4895 646.23 90.4221C644.278 86.3548 641.482 83.1448 637.845 80.7921C634.246 78.4394 629.996 77.2631 625.096 77.2631C619.698 77.2631 615.026 78.6588 611.083 81.4501C607.177 84.2015 604.172 87.7903 602.066 92.2166C599.961 96.6427 598.908 101.388 598.908 106.452V114.587C598.908 121.525 600.056 127.407 602.354 132.232C604.689 137.017 607.924 140.666 612.059 143.177C616.194 145.65 620.999 146.886 626.474 146.886C630.034 146.886 633.251 146.368 636.122 145.331C639.032 144.255 641.54 142.659 643.646 140.546C644.308 139.868 644.924 139.14 645.491 138.359C647.671 135.363 651.3 133.342 654.856 134.381C658.587 135.472 660.793 139.454 658.876 142.834C657.712 144.885 656.311 146.794 654.672 148.561C651.418 152.031 647.398 154.741 642.612 156.695C637.826 158.61 632.447 159.567 626.474 159.567Z" stroke="var(--stroke-0, #7300FF)" stroke-width="2" mask="url(#path-3-outside-1_0_4)"/>
</g>
</g>
</svg>
